<svg width="634" height="100" viewBox="0 0 634 100" fill="none"
    xmlns="http://www.w3.org/2000/svg">
    <path d="M38.1537 28.3084C57.0242 9.84087 87.6187 9.84087 106.489 28.3084L108.76 30.531C109.704 31.4545 109.704 32.9514 108.76 33.8749L100.991 41.478C100.52 41.9397 99.7549 41.9397 99.2829 41.478L96.1576 38.4195C82.9934 25.536 61.6495 25.536 48.4853 38.4195L45.1383 41.6948C44.6666 42.1566 43.9016 42.1566 43.4299 41.6948L35.6609 34.0918C34.7175 33.1683 34.7175 31.6713 35.6609 30.7478L38.1537 28.3084ZM122.556 44.0325L129.47 50.799C130.414 51.7225 130.414 53.2195 129.47 54.143L98.2931 84.6554C97.3498 85.5786 95.82 85.5786 94.8763 84.6554L72.7486 62.9999C72.5127 62.7689 72.1305 62.7689 71.8947 62.9999L49.7672 84.6554C48.8239 85.5786 47.2941 85.5786 46.3507 84.6554L15.1725 54.1427C14.229 53.2192 14.229 51.7222 15.1725 50.7987L22.0868 44.0322C23.0303 43.1087 24.5601 43.1087 25.5036 44.0322L47.6317 65.6876C47.8675 65.9186 48.2498 65.9186 48.4856 65.6876L70.6127 44.0322C71.5561 43.1087 73.0859 43.1087 74.0293 44.0319L96.1573 65.6876C96.3934 65.9186 96.7757 65.9186 97.0115 65.6876L119.139 44.0325C120.083 43.109 121.612 43.109 122.556 44.0325Z" fill="#3396FF"/>
    <path d="M171.757 74.8127L180.11 41.404C180.605 39.5636 181.03 37.5817 181.596 34.4675C182.021 37.5817 182.516 39.5636 182.87 41.404L190.09 74.8127H205.025L217.624 25.2659H206.157L199.221 55.7019C198.513 58.6744 198.088 61.0103 197.593 64.4787C197.026 61.1519 196.46 58.6744 195.823 55.7726L189.099 25.2659H174.093L166.803 55.7726C166.166 58.6744 165.67 61.0103 165.104 64.4787C164.538 61.0103 164.042 58.6744 163.405 55.7726L156.61 25.2659H144.648L157.177 74.8127H171.757Z" fill="black"/>
    <path d="M226.173 76.0865C231.835 76.0865 235.445 73.7509 237.286 70.3533C237.073 71.4151 237.002 72.4768 237.002 73.5386V74.8127H246.487V54.3569C246.487 44.5892 242.028 38.9265 231.128 38.9265C221.714 38.9265 215.556 44.1645 214.99 51.384H225.394C225.748 48.1988 228.013 46.2877 231.482 46.2877C234.737 46.2877 236.507 48.128 236.507 50.2515C236.507 51.8087 235.587 52.7289 232.826 53.0828L227.872 53.6491C220.511 54.5693 214.211 57.2587 214.211 65.0449C214.211 72.1229 220.086 76.0865 226.173 76.0865ZM229.358 68.7961C226.598 68.7961 224.545 67.2389 224.545 64.5494C224.545 61.9304 226.881 60.6563 230.42 60.0193L232.826 59.5946C234.879 59.1699 236.012 58.816 236.719 58.1789V61.4349C236.719 65.8232 233.534 68.7961 229.358 68.7961Z" fill="black"/>
    <path d="M251.418 25.2659V74.8127H261.681V25.2659H251.418Z" fill="black"/>
    <path d="M267.621 25.2659V74.8127H277.884V25.2659H267.621Z" fill="black"/>
    <path d="M300.283 76.0865C310.051 76.0865 316.352 70.5657 317.06 63.3461H306.726C306.229 66.531 303.539 68.3006 300.283 68.3006C295.895 68.3006 292.71 64.7618 292.639 59.8777H317.271V57.8958C317.271 46.4292 310.973 38.9265 300.071 38.9265C289.596 38.9265 282.234 46.2877 282.234 57.4003C282.234 69.4331 289.808 76.0865 300.283 76.0865ZM292.568 53.1536C292.993 49.1898 295.895 46.2877 300 46.2877C303.964 46.2877 306.726 49.0482 306.795 53.1536H292.568Z" fill="black"/>
    <path d="M338.995 75.5205C341.26 75.5205 343.456 75.1666 344.447 74.8835V67.0973C343.667 67.2389 342.748 67.3097 341.968 67.3097C338.218 67.3097 336.872 65.1865 336.872 61.7181V48.128H345.224V40.1298H336.872V27.814H326.679V40.1298H319.176V48.128H326.679V63.1338C326.679 71.3443 330.784 75.5205 338.995 75.5205Z" fill="black"/>
    <path d="M373.641 76.0867C387.656 76.0867 396.15 67.8759 397.211 56.0554H386.099C385.25 62.4966 380.72 66.8849 374.066 66.8849C366.211 66.8849 360.69 60.5147 360.69 49.756C360.69 39.2096 366.421 33.1933 374.28 33.1933C381.003 33.1933 384.825 37.2984 385.602 43.315H397C395.867 30.999 386.807 23.9917 374.349 23.9917C360.123 23.9917 349.223 33.618 349.223 49.756C349.223 66.4602 358.777 76.0867 373.641 76.0867Z" fill="black"/>
    <path d="M419.459 76.0865C430.149 76.0865 437.721 69.3624 437.721 57.6127C437.721 46.0753 430.149 38.9265 419.459 38.9265C408.845 38.9265 401.27 46.0753 401.27 57.6127C401.27 69.3624 408.773 76.0865 419.459 76.0865ZM419.459 68.159C414.718 68.159 411.673 64.2663 411.673 57.6127C411.673 50.8178 414.86 46.9955 419.459 46.9955C424.131 46.9955 427.318 50.8178 427.318 57.6127C427.318 64.2663 424.203 68.159 419.459 68.159Z" fill="black"/>
    <path d="M452.031 74.8127V54.4985C452.031 50.1807 454.717 46.9955 458.54 46.9955C462.151 46.9955 464.275 49.756 464.275 54.3569V74.8127H474.537V52.8705C474.537 44.5184 470.148 38.9265 462.293 38.9265C456.841 38.9265 453.516 41.5455 451.748 44.6599C451.958 43.3859 452.031 42.3949 452.031 41.4747V40.1298H441.766V74.8127H452.031Z" fill="black"/>
    <path d="M490.942 74.8127V54.4985C490.942 50.1807 493.632 46.9955 497.454 46.9955C501.062 46.9955 503.186 49.756 503.186 54.3569V74.8127H513.451V52.8705C513.451 44.5184 509.062 38.9265 501.204 38.9265C495.755 38.9265 492.427 41.5455 490.659 44.6599C490.869 43.3859 490.942 42.3949 490.942 41.4747V40.1298H480.68V74.8127H490.942Z" fill="black"/>
    <path d="M535.533 76.0865C545.301 76.0865 551.599 70.5657 552.307 63.3461H541.975C541.478 66.531 538.789 68.3006 535.533 68.3006C531.144 68.3006 527.96 64.7618 527.888 59.8777H552.521V57.8958C552.521 46.4292 546.219 38.9265 535.322 38.9265C524.846 38.9265 517.484 46.2877 517.484 57.4003C517.484 69.4331 525.057 76.0865 535.533 76.0865ZM527.819 53.1536C528.243 49.1898 531.144 46.2877 535.249 46.2877C539.213 46.2877 541.975 49.0482 542.045 53.1536H527.819Z" fill="black"/>
    <path d="M574.555 76.0865C585.314 76.0865 591.191 70.2118 592.323 61.081H582.058C581.706 64.9033 579.51 68.159 574.91 68.159C570.239 68.159 567.055 63.8416 567.055 57.4711C567.055 50.5346 570.736 46.9955 575.121 46.9955C579.441 46.9955 581.564 50.11 581.847 53.7199H592.109C591.332 45.297 585.597 38.9265 575.052 38.9265C564.79 38.9265 556.648 45.7214 556.648 57.4711C556.648 69.0792 563.516 76.0865 574.555 76.0865Z" fill="black"/>
    <path d="M614.522 75.5205C616.787 75.5205 618.983 75.1666 619.974 74.8835V67.0973C619.194 67.2389 618.275 67.3097 617.495 67.3097C613.745 67.3097 612.399 65.1865 612.399 61.7181V48.128H620.751V40.1298H612.399V27.814H602.206V40.1298H594.703V48.128H602.206V63.1338C602.206 71.3443 606.312 75.5205 614.522 75.5205Z" fill="black"/>
</svg>
    